HIERARCHY
ROOT pelvis
{
  OFFSET 0 100 0
  CHANNELS 6 Xposition Yposition Zposition Zrotation Xrotation Yrotation
  JOINT pelvis_right_femur
  {
    OFFSET -10.78128 -3.44521 -0.5502486
    CHANNELS 3 Zrotation Xrotation Yrotation
    JOINT right_femur_tibia
    {
      OFFSET -0.8047443 -44.0398 -0.1307829
      CHANNELS 3 Zrotation Xrotation Yrotation
      JOINT right_tibia_foot
      {
        OFFSET 3.006224 -47.83518 -5
        CHANNELS 3 Zrotation Xrotation Yrotation
        End Site
        {
          OFFSET 0 -5 15
        }
      }
    }
  }
  JOINT pelvis_left_femur
  {
    OFFSET 10.78128 -3.44521 -0.5502486
    CHANNELS 3 Zrotation Xrotation Yrotation
    JOINT left_femur_tibia
    {
      OFFSET 0.8047443 -44.0398 -0.1307829
      CHANNELS 3 Zrotation Xrotation Yrotation
      JOINT left_tibia_foot
      {
        OFFSET -4.370144 -48.10324 -4.275266
        CHANNELS 3 Zrotation Xrotation Yrotation
        End Site
        {
          OFFSET 0 -5 15
        }
      }
    }
  }
  JOINT pelvis_spine1
  {
    OFFSET 0 6.468898 -3.129235
    CHANNELS 3 Zrotation Xrotation Yrotation
    JOINT spine1
    {
      OFFSET 0 23.15396 4.99043
      CHANNELS 3 Zrotation Xrotation Yrotation
      JOINT spine2
      {
        OFFSET 0 20.79997 -5.064912
        CHANNELS 3 Zrotation Xrotation Yrotation
        JOINT neck
        {
          OFFSET 0 14.38658 9.616178
          CHANNELS 3 Zrotation Xrotation Yrotation
          End Site
          {
            OFFSET 0 20 0
          }
        }
      }
      JOINT right_manubrium
      {
        OFFSET -5.722621 16.35077 3.967754
        CHANNELS 3 Zrotation Xrotation Yrotation
        JOINT right_clavicle
        {
          OFFSET -13.16364 1.694482 -4.693211
          CHANNELS 3 Zrotation Xrotation Yrotation
          JOINT right_humerus
          {
            OFFSET -28.5034 -0.3100689 -2.792744
            CHANNELS 3 Zrotation Xrotation Yrotation
            JOINT right_radius
            {
              OFFSET -25.15693 0.02248979 -1.271978
              CHANNELS 3 Zrotation Xrotation Yrotation
              End Site
              {
                OFFSET -15 0 0
              }
            }
          }
        }
      }
      JOINT left_manubrium
      {
        OFFSET 5.722621 16.35077 3.967754
        CHANNELS 3 Zrotation Xrotation Yrotation
        JOINT left_clavicle
        {
          OFFSET 13.16364 1.694482 -4.693211
          CHANNELS 3 Zrotation Xrotation Yrotation
          JOINT left_humerus
          {
            OFFSET 29.39168 -1.063119 -2.237045
            CHANNELS 3 Zrotation Xrotation Yrotation
            JOINT left_radius
            {
              OFFSET 24.59957 -0.9528479 0.9047498
              CHANNELS 3 Zrotation Xrotation Yrotation
              End Site
              {
                OFFSET 15 -0 -0
              }
            }
          }
        }
      }
    }
  }
}
MOTION
Frames: 15
Frame Time: 0.0416666666667
0 103.5113 0 0.2152429 0.1906337 0.128362 4.117898 -18.10746 11.1006 -0 41.38595 -0 -5.745034 -16.50606 -3.253516 -6.552322 10.30164 -24.62551 -0 2.513899 -0 8.942562 -16.10469 26.8568 -3.32538 -3.616116 4.234017 2.457655 9.276646 -7.251065 1.744551 21.76569 6.920856 2.769155 -25.01942 10.35103 6.86598 -19.84544 11.4429 84.3577 36.59092 -17.35826 -0 0 17.20394 -6.546402 9.236174 5.744233 5.202849 -18.03129 -0.8679131 -94.53534 27.87282 23.60954 0 0 -15.53731 6.886222 16.51978 7.463589
0.3576381 103.8275 1.621485 0.1028373 0.2472606 0.2403068 4.380291 -18.75235 10.89267 -0 40.4784 -0 -5.942439 -16.36409 -3.19865 -6.486496 10.49493 -24.46649 -0 3.145503 -0 8.828377 -16.33575 26.74318 -3.192754 -3.496382 4.21892 2.468751 9.218936 -7.247522 1.783445 21.77225 6.883279 2.79081 -25.1349 10.36239 6.681039 -19.78158 11.35452 84.51943 36.32392 -17.46169 -0 0 17.03534 -6.309122 8.976055 5.46467 5.354817 -18.15477 -0.8667203 -94.47296 27.70128 23.36103 0 0 -15.54489 7.373972 16.63035 6.82992
0.6254931 104.089 3.377225 -0.362604 0.2750251 0.2958742 5.235436 -20.42852 10.3588 -0 37.21176 -0 -6.696113 -15.86727 -3.405456 -6.101823 11.60523 -24.19057 -0 4.993245 -0 6.804402 -17.99769 25.88688 -2.608917 -3.015152 4.029505 2.438537 8.795728 -7.286177 1.962058 21.9095 6.754758 2.838989 -25.55592 10.40188 5.856119 -19.56721 10.90984 85.44199 34.95596 -18.26967 -0 0 16.43677 -5.374383 8.053902 4.565568 5.67316 -18.45966 -0.9194225 -95.33455 29.52165 23.61698 0 0 -15.91513 6.102903 17.47071 8.36206
0.8591921 104.2643 5.348197 -0.632744 0.3834354 0.3434642 5.659404 -22.26879 9.520096 -0 34.44292 -0 -7.185799 -14.35484 -3.167474 -5.882754 12.13923 -23.37976 -0 6.068706 -0 5.962026 -18.90112 25.02376 -2.272107 -2.633046 3.925698 2.422719 8.812629 -7.383059 1.974142 21.84136 6.785704 2.999783 -25.76344 10.32042 5.373517 -19.42752 10.78772 86.08577 34.25589 -18.81645 -0 0 15.86217 -5.575032 7.779859 4.306762 6.056915 -19.08527 -1.121062 -94.98786 29.3383 22.92413 0 0 -16.56469 6.582214 17.57639 7.725993
1.063519 104.2642 7.708074 -0.9262353 0.5519237 0.4184625 5.966737 -25.09261 8.039884 -0 30.20394 -0 -7.73748 -11.41011 -2.663095 -5.616497 12.8264 -21.80692 -0 7.054784 -0 4.897627 -20.13224 23.51512 -1.898183 -2.091931 3.76886 2.404129 9.028891 -7.599745 1.90112 21.6384 6.921306 3.281726 -25.94065 10.11336 4.750936 -19.24114 10.75197 87.04938 33.39544 -19.67853 -0 0 14.92091 -6.586095 7.781019 4.346333 6.624892 -20.22917 -1.534748 -93.93389 28.52307 21.46588 0 0 -18.00766 7.473589 17.33245 6.544567
1.246113 104.0445 10.57897 -1.10563 0.7951522 0.5581573 6.045855 -28.18893 6.254258 -0 25.21767 -0 -8.146801 -7.927023 -2.010759 -5.457217 13.60007 -19.85064 -0 7.910501 -0 4.173819 -21.32791 21.89526 -1.671635 -1.585094 3.618551 2.444453 9.335961 -7.854696 1.789627 21.35809 7.071288 3.556366 -26.08372 9.859729 4.112924 -18.99354 10.78604 88.06074 32.54972 -20.59817 -0 0 13.68169 -7.982558 7.942519 4.597604 7.250813 -21.54869 -1.962546 -92.30694 26.94712 19.36707 0 0 -19.92179 8.969341 16.67856 4.529407
1.415318 103.5243 14.15764 -1.104786 1.118707 0.8249606 5.736321 -31.52985 3.950418 -0 18.92055 -0 -8.285928 -3.594807 -1.266556 -5.446548 14.64154 -17.29909 -0 8.413114 -0 3.553203 -22.68224 19.94805 -1.65725 -1.134374 3.449727 2.564607 9.722166 -8.193454 1.607963 20.97467 7.253193 3.817738 -26.13569 9.500839 3.402141 -18.64478 10.90473 89.24502 31.59222 -21.76332 -0 0 11.96178 -10.0087 8.3423 5.218792 7.926002 -23.12901 -2.446284 -90.0667 24.71231 16.53448 0 0 -22.76812 10.58085 15.43276 2.19939
1.59091 102.6258 18.64412 -0.8018964 1.457148 1.295711 4.875839 -34.42593 1.161274 -0 11.71688 -0 -7.952539 1.299304 -0.5969138 -5.701644 16.03176 -14.2664 -0 8.173862 -0 3.14017 -24.05549 17.84695 -1.97914 -0.890553 3.25011 2.791787 10.12816 -8.591082 1.339074 20.53051 7.43776 3.990325 -26.02044 9.014398 2.624859 -18.20277 11.12145 90.54373 30.42107 -23.12835 -0 0 9.732594 -12.65045 8.894869 6.32952 8.538359 -24.79739 -2.959148 -87.36781 21.87262 13.10105 0 0 -26.58837 11.88821 13.50744 -0.0493753
1.81053 101.3167 24.1852 -0.2115121 1.700338 2.046405 3.609887 -36.00082 -1.752125 -0 4.727137 -0 -7.055169 6.142069 -0.2772066 -6.231927 17.81794 -11.12242 -0 6.891519 -0 2.719305 -25.18944 15.75372 -2.575953 -0.983078 2.961095 3.095628 10.42253 -8.970601 0.9986472 20.11461 7.591471 3.991797 -25.70152 8.439776 1.749893 -17.71417 11.38563 91.86054 28.79999 -24.52932 -0 0 7.185275 -15.63185 9.367492 7.915679 8.937328 -26.21827 -3.466166 -84.67714 18.93587 9.581262 0 0 -30.94271 12.22363 11.12987 -1.411275
2.113947 99.73158 30.68664 0.3153437 1.569135 3.069283 2.715938 -35.44248 -3.857973 -0 0.4866134 -0 -6.205189 9.550845 -0.4295939 -6.735808 19.8149 -8.859287 -0 5.445547 -0 1.801697 -25.44782 13.9832 -2.952648 -1.369871 2.474807 3.316342 10.40693 -9.114074 0.7119718 19.98365 7.638549 3.771436 -25.33117 7.979109 0.6789074 -17.28963 11.49895 93.02272 26.39514 -25.43268 -0 0 4.909536 -17.87573 9.169678 9.369227 8.966508 -26.82393 -3.909148 -82.92122 16.97595 7.044958 0 0 -33.97823 11.45659 9.247051 -1.473318
2.480085 98.26054 37.70038 0.2130463 0.6707721 4.147126 3.010553 -32.90593 -4.460676 -0 1.080929 -0 -6.909131 10.01617 -0.6485936 -6.597688 21.38797 -8.537638 -0 7.146587 -0 -0.2466299 -24.09813 12.67006 -2.348229 -1.63918 1.783877 3.213596 9.988941 -8.790011 0.6847174 20.4867 7.493652 3.432684 -25.19366 7.885372 -0.6240166 -16.94237 11.19723 93.95863 23.31619 -25.27675 -0 0 3.503765 -17.95185 7.800126 9.532908 8.599516 -26.29712 -4.265586 -82.97355 17.04461 6.457595 0 0 -33.19294 10.53506 9.233007 -0.9443576
2.803484 97.38897 44.66003 -0.4758219 -0.9974286 4.88061 4.151216 -29.35849 -4.046334 -0 4.923565 -0 -9.682422 7.338252 -0.5536696 -5.698485 21.44579 -9.821363 -0 15.46075 -0 -3.170854 -21.12629 11.71909 -0.8481895 -1.369913 1.226717 2.777776 9.39551 -8.096759 0.9502563 21.63642 7.145224 3.214341 -25.2262 8.065486 -1.725284 -16.47014 10.54869 94.62177 20.89035 -24.28268 -0 0 2.865968 -15.87624 5.721347 8.018875 7.966495 -25.12188 -4.538874 -84.53727 18.79477 7.44967 0 0 -28.69483 10.63368 11.26888 -1.147134
3.01319 97.3643 51.25871 -1.068735 -2.675583 5.073769 5.188349 -25.47386 -3.269368 -0 8.520043 -0 -12.65452 3.101757 -0.498626 -4.739013 19.30273 -11.09524 -0 28.49857 -0 -5.751012 -17.50277 11.11674 0.4715912 -0.7131468 1.220882 2.29459 8.979771 -7.423049 1.275072 22.85152 6.732692 3.204913 -25.02902 8.166155 -1.947647 -15.83704 10.00013 94.69753 20.60854 -23.25265 -0 0 2.65085 -13.41765 4.274697 6.000667 7.224832 -24.02356 -4.619079 -86.28048 20.92734 8.871657 0 0 -23.72835 11.35449 13.64114 -1.813421
3.130725 98.11442 57.45604 -1.283498 -3.686653 4.864365 5.81594 -21.48017 -2.22005 -0 10.7855 -0 -14.28222 -0.9489409 -0.6924549 -4.143181 15.29419 -11.55231 -0 41.19254 -0 -7.246534 -14.14708 10.91962 1.066915 -0.08645575 1.787162 1.93717 8.878671 -6.952205 1.479134 23.61519 6.425539 3.288056 -24.55512 8.110834 -1.266654 -15.34347 9.804672 94.06338 22.36343 -22.47243 -0 0 2.929364 -11.85868 4.211718 4.662283 6.48025 -23.19655 -4.410334 -87.55751 22.69082 10.42583 0 0 -20.40988 11.57653 15.05072 -1.684811
3.20634 99.4126 63.31185 -1.225529 -4.043887 4.441781 6.113505 -17.30186 -1.03052 -0 12.12651 -0 -14.61748 -4.136005 -0.9255714 -3.788124 9.967872 -11.33213 -0 51.02439 -0 -7.705934 -11.33218 11.08515 1.115747 0.3345987 2.71587 1.657003 9.064758 -6.606718 1.558027 23.89555 6.261107 3.355837 -23.99437 8.005758 -0.1625946 -15.2296 9.924145 92.95387 25.16889 -21.69818 -0 0 3.794397 -11.44345 5.352718 4.299394 5.775007 -22.55127 -4.009324 -88.50595 23.88656 12.31645 0 0 -18.66181 11.05021 15.52379 -0.512077
